{
	"patcher" : 	{
		"fileversion" : 1,
		"appversion" : 		{
			"major" : 7,
			"minor" : 2,
			"revision" : 4,
			"architecture" : "x86",
			"modernui" : 1
		}
,
		"rect" : [ 331.0, 79.0, 954.0, 766.0 ],
		"bglocked" : 0,
		"openinpresentation" : 0,
		"default_fontsize" : 12.0,
		"default_fontface" : 0,
		"default_fontname" : "Arial",
		"gridonopen" : 1,
		"gridsize" : [ 15.0, 15.0 ],
		"gridsnaponopen" : 1,
		"objectsnaponopen" : 1,
		"statusbarvisible" : 2,
		"toolbarvisible" : 1,
		"lefttoolbarpinned" : 0,
		"toptoolbarpinned" : 0,
		"righttoolbarpinned" : 0,
		"bottomtoolbarpinned" : 0,
		"toolbars_unpinned_last_save" : 0,
		"tallnewobj" : 0,
		"boxanimatetime" : 200,
		"enablehscroll" : 1,
		"enablevscroll" : 1,
		"devicewidth" : 0.0,
		"description" : "",
		"digest" : "",
		"tags" : "",
		"style" : "",
		"subpatcher_template" : "",
		"boxes" : [ 			{
				"box" : 				{
					"id" : "obj-98",
					"linecount" : 6,
					"maxclass" : "comment",
					"numinlets" : 1,
					"numoutlets" : 0,
					"patching_rect" : [ 820.0, 521.0, 18.0, 87.0 ],
					"style" : "",
					"text" : "HP LP\n Q\n",
					"textcolor" : [ 0.862745, 0.870588, 0.878431, 1.0 ],
					"textjustification" : 1
				}

			}
, 			{
				"box" : 				{
					"id" : "obj-97",
					"linecount" : 7,
					"maxclass" : "comment",
					"numinlets" : 1,
					"numoutlets" : 0,
					"patching_rect" : [ 790.5, 521.0, 18.0, 100.0 ],
					"style" : "",
					"text" : "LP\n\nFREQ",
					"textcolor" : [ 0.862745, 0.870588, 0.878431, 1.0 ],
					"textjustification" : 1
				}

			}
, 			{
				"box" : 				{
					"id" : "obj-96",
					"linecount" : 7,
					"maxclass" : "comment",
					"numinlets" : 1,
					"numoutlets" : 0,
					"patching_rect" : [ 762.0, 521.0, 23.0, 100.0 ],
					"style" : "",
					"text" : "HP\n\nFREQ",
					"textcolor" : [ 0.862745, 0.870588, 0.878431, 1.0 ],
					"textjustification" : 1
				}

			}
, 			{
				"box" : 				{
					"id" : "obj-94",
					"maxclass" : "newobj",
					"numinlets" : 5,
					"numoutlets" : 2,
					"outlettype" : [ "signal", "signal" ],
					"patching_rect" : [ 858.0, 366.0, 83.0, 22.0 ],
					"style" : "",
					"text" : "lm.hplpstereo",
					"varname" : "lm.hplpstereo"
				}

			}
, 			{
				"box" : 				{
					"id" : "obj-93",
					"maxclass" : "message",
					"numinlets" : 2,
					"numoutlets" : 1,
					"outlettype" : [ "" ],
					"patching_rect" : [ 323.0, 894.0, 50.0, 22.0 ],
					"style" : "",
					"text" : "13"
				}

			}
, 			{
				"box" : 				{
					"id" : "obj-91",
					"maxclass" : "newobj",
					"numinlets" : 2,
					"numoutlets" : 2,
					"outlettype" : [ "", "" ],
					"patching_rect" : [ 414.0, 867.0, 39.0, 22.0 ],
					"style" : "",
					"text" : "zl.len"
				}

			}
, 			{
				"box" : 				{
					"id" : "obj-90",
					"linecount" : 2,
					"maxclass" : "message",
					"numinlets" : 2,
					"numoutlets" : 1,
					"outlettype" : [ "" ],
					"patching_rect" : [ 397.0, 922.0, 487.0, 35.0 ],
					"style" : "",
					"text" : "0 synthParams 0.669291 0.181102 0.503937 0.818167 0.055118 0.818898 0. 0.299213 0.007874 0.314961 0.464567"
				}

			}
, 			{
				"box" : 				{
					"color" : [ 0.941176, 0.690196, 0.196078, 1.0 ],
					"id" : "obj-88",
					"maxclass" : "newobj",
					"numinlets" : 1,
					"numoutlets" : 0,
					"patching_rect" : [ 621.75, 763.5, 93.0, 22.0 ],
					"style" : "",
					"text" : "s waa_oscData"
				}

			}
, 			{
				"box" : 				{
					"color" : [ 0.941176, 0.690196, 0.196078, 1.0 ],
					"id" : "obj-82",
					"maxclass" : "newobj",
					"numinlets" : 1,
					"numoutlets" : 0,
					"patching_rect" : [ 641.0, 739.5, 101.0, 22.0 ],
					"style" : "",
					"text" : "s waa_oscTarget"
				}

			}
, 			{
				"box" : 				{
					"color" : [ 0.941176, 0.690196, 0.196078, 1.0 ],
					"id" : "obj-81",
					"maxclass" : "newobj",
					"numinlets" : 0,
					"numoutlets" : 1,
					"outlettype" : [ "" ],
					"patching_rect" : [ 176.0, 591.272705, 99.0, 22.0 ],
					"style" : "",
					"text" : "r waa_oscTarget"
				}

			}
, 			{
				"box" : 				{
					"color" : [ 0.941176, 0.690196, 0.196078, 1.0 ],
					"id" : "obj-80",
					"maxclass" : "newobj",
					"numinlets" : 1,
					"numoutlets" : 0,
					"patching_rect" : [ 241.0, 434.0, 101.0, 22.0 ],
					"style" : "",
					"text" : "s waa_oscTarget"
				}

			}
, 			{
				"box" : 				{
					"color" : [ 0.941176, 0.690196, 0.196078, 1.0 ],
					"id" : "obj-79",
					"maxclass" : "newobj",
					"numinlets" : 0,
					"numoutlets" : 1,
					"outlettype" : [ "" ],
					"patching_rect" : [ 281.0, 615.0, 91.0, 22.0 ],
					"style" : "",
					"text" : "r waa_oscData"
				}

			}
, 			{
				"box" : 				{
					"color" : [ 0.941176, 0.690196, 0.196078, 1.0 ],
					"id" : "obj-78",
					"maxclass" : "newobj",
					"numinlets" : 1,
					"numoutlets" : 0,
					"patching_rect" : [ 451.0, 565.0, 93.0, 22.0 ],
					"style" : "",
					"text" : "s waa_oscData"
				}

			}
, 			{
				"box" : 				{
					"color" : [ 0.941176, 0.690196, 0.196078, 1.0 ],
					"id" : "obj-77",
					"maxclass" : "newobj",
					"numinlets" : 1,
					"numoutlets" : 0,
					"patching_rect" : [ 465.5, 540.0, 101.0, 22.0 ],
					"style" : "",
					"text" : "s waa_oscTarget"
				}

			}
, 			{
				"box" : 				{
					"color" : [ 0.941176, 0.690196, 0.196078, 1.0 ],
					"id" : "obj-76",
					"maxclass" : "newobj",
					"numinlets" : 1,
					"numoutlets" : 0,
					"patching_rect" : [ 435.5, 590.0, 109.0, 22.0 ],
					"style" : "",
					"text" : "s waa_whichVoice"
				}

			}
, 			{
				"box" : 				{
					"color" : [ 0.941176, 0.690196, 0.196078, 1.0 ],
					"id" : "obj-64",
					"maxclass" : "newobj",
					"numinlets" : 1,
					"numoutlets" : 0,
					"patching_rect" : [ 602.5, 787.5, 109.0, 22.0 ],
					"style" : "",
					"text" : "s waa_whichVoice"
				}

			}
, 			{
				"box" : 				{
					"color" : [ 0.941176, 0.690196, 0.196078, 1.0 ],
					"id" : "obj-62",
					"maxclass" : "newobj",
					"numinlets" : 1,
					"numoutlets" : 0,
					"patching_rect" : [ 226.0, 460.0, 109.0, 22.0 ],
					"style" : "",
					"text" : "s waa_whichVoice"
				}

			}
, 			{
				"box" : 				{
					"color" : [ 0.941176, 0.690196, 0.196078, 1.0 ],
					"id" : "obj-59",
					"maxclass" : "newobj",
					"numinlets" : 1,
					"numoutlets" : 0,
					"patching_rect" : [ 43.0, 521.5, 109.0, 22.0 ],
					"style" : "",
					"text" : "s waa_whichVoice"
				}

			}
, 			{
				"box" : 				{
					"color" : [ 0.941176, 0.690196, 0.196078, 1.0 ],
					"id" : "obj-57",
					"maxclass" : "newobj",
					"numinlets" : 0,
					"numoutlets" : 1,
					"outlettype" : [ "" ],
					"patching_rect" : [ 120.0, 567.272705, 107.0, 22.0 ],
					"style" : "",
					"text" : "r waa_whichVoice"
				}

			}
, 			{
				"box" : 				{
					"id" : "obj-51",
					"maxclass" : "newobj",
					"numinlets" : 1,
					"numoutlets" : 3,
					"outlettype" : [ "int", "", "int" ],
					"patching_rect" : [ 602.5, 715.5, 57.5, 22.0 ],
					"style" : "",
					"text" : "t 0 l 2"
				}

			}
, 			{
				"box" : 				{
					"id" : "obj-46",
					"maxclass" : "newobj",
					"numinlets" : 2,
					"numoutlets" : 2,
					"outlettype" : [ "", "" ],
					"patching_rect" : [ 602.5, 690.0, 62.0, 22.0 ],
					"style" : "",
					"text" : "zl.change"
				}

			}
, 			{
				"box" : 				{
					"id" : "obj-44",
					"maxclass" : "comment",
					"numinlets" : 1,
					"numoutlets" : 0,
					"patching_rect" : [ 602.5, 496.5, 85.0, 20.0 ],
					"style" : "",
					"text" : "outputParams"
				}

			}
, 			{
				"box" : 				{
					"id" : "obj-30",
					"maxclass" : "comment",
					"numinlets" : 1,
					"numoutlets" : 0,
					"patching_rect" : [ 428.5, 334.0, 81.0, 20.0 ],
					"style" : "",
					"text" : "synthParams"
				}

			}
, 			{
				"box" : 				{
					"id" : "obj-71",
					"linecount" : 9,
					"maxclass" : "comment",
					"numinlets" : 1,
					"numoutlets" : 0,
					"patching_rect" : [ 711.5, 527.5, 20.0, 127.0 ],
					"style" : "",
					"text" : "DLY\n\n WIDTH",
					"textcolor" : [ 0.65098, 0.666667, 0.662745, 0.49 ],
					"textjustification" : 1
				}

			}
, 			{
				"box" : 				{
					"id" : "obj-70",
					"linecount" : 8,
					"maxclass" : "comment",
					"numinlets" : 1,
					"numoutlets" : 0,
					"patching_rect" : [ 681.5, 527.5, 20.0, 114.0 ],
					"style" : "",
					"text" : "DLY\n\n FREQ",
					"textcolor" : [ 0.65098, 0.666667, 0.662745, 0.49 ],
					"textjustification" : 1
				}

			}
, 			{
				"box" : 				{
					"id" : "obj-69",
					"linecount" : 9,
					"maxclass" : "comment",
					"numinlets" : 1,
					"numoutlets" : 0,
					"patching_rect" : [ 658.25, 521.0, 20.0, 127.0 ],
					"style" : "",
					"text" : "DLY\n\n FDBCK",
					"textcolor" : [ 0.862745, 0.870588, 0.878431, 1.0 ],
					"textjustification" : 1
				}

			}
, 			{
				"box" : 				{
					"id" : "obj-68",
					"linecount" : 7,
					"maxclass" : "comment",
					"numinlets" : 1,
					"numoutlets" : 0,
					"patching_rect" : [ 630.5, 521.0, 20.0, 100.0 ],
					"style" : "",
					"text" : "DLY\n TIME",
					"textcolor" : [ 0.862745, 0.870588, 0.878431, 1.0 ],
					"textjustification" : 1
				}

			}
, 			{
				"box" : 				{
					"id" : "obj-67",
					"linecount" : 7,
					"maxclass" : "comment",
					"numinlets" : 1,
					"numoutlets" : 0,
					"patching_rect" : [ 607.0, 521.0, 21.0, 100.0 ],
					"style" : "",
					"text" : "TO\n DELAY",
					"textcolor" : [ 0.862745, 0.870588, 0.878431, 1.0 ],
					"textjustification" : 1
				}

			}
, 			{
				"box" : 				{
					"id" : "obj-54",
					"maxclass" : "message",
					"numinlets" : 2,
					"numoutlets" : 1,
					"outlettype" : [ "" ],
					"patching_rect" : [ 633.0, 87.0, 50.0, 22.0 ],
					"style" : "",
					"text" : "600."
				}

			}
, 			{
				"box" : 				{
					"id" : "obj-45",
					"maxclass" : "message",
					"numinlets" : 2,
					"numoutlets" : 1,
					"outlettype" : [ "" ],
					"patching_rect" : [ 659.0, 22.0, 29.5, 22.0 ],
					"style" : "",
					"text" : "4n"
				}

			}
, 			{
				"box" : 				{
					"id" : "obj-42",
					"maxclass" : "newobj",
					"numinlets" : 1,
					"numoutlets" : 1,
					"outlettype" : [ "" ],
					"patching_rect" : [ 664.0, 57.0, 137.0, 22.0 ],
					"style" : "",
					"text" : "translate notevalues ms"
				}

			}
, 			{
				"box" : 				{
					"id" : "obj-4",
					"linecount" : 11,
					"maxclass" : "comment",
					"numinlets" : 1,
					"numoutlets" : 0,
					"patching_rect" : [ 43.0, 156.0, 150.0, 154.0 ],
					"style" : "",
					"text" : "fade in mod\nhvorfor click'er det når man har spillet 8 voices?\nfilter envelope\nlogaritmisk amp envelope\nnoise_mod eller feedback\n\nhigh pass filter på outputtet\n\ntale syntese"
				}

			}
, 			{
				"box" : 				{
					"id" : "obj-38",
					"linecount" : 8,
					"maxclass" : "comment",
					"numinlets" : 1,
					"numoutlets" : 0,
					"patching_rect" : [ 842.0, 521.0, 20.0, 114.0 ],
					"style" : "",
					"text" : "MSTR\n\nVOL",
					"textcolor" : [ 0.862745, 0.870588, 0.878431, 1.0 ],
					"textjustification" : 1
				}

			}
, 			{
				"box" : 				{
					"id" : "obj-35",
					"linecount" : 9,
					"maxclass" : "comment",
					"numinlets" : 1,
					"numoutlets" : 0,
					"patching_rect" : [ 664.0, 358.0, 20.0, 127.0 ],
					"style" : "",
					"text" : "VOI\nCE\n\nPAN",
					"textcolor" : [ 0.862745, 0.870588, 0.878431, 1.0 ],
					"textjustification" : 1
				}

			}
, 			{
				"box" : 				{
					"id" : "obj-34",
					"linecount" : 9,
					"maxclass" : "comment",
					"numinlets" : 1,
					"numoutlets" : 0,
					"patching_rect" : [ 638.5, 358.0, 20.0, 127.0 ],
					"style" : "",
					"text" : "AMP\n\nDECAY",
					"textcolor" : [ 0.862745, 0.870588, 0.878431, 1.0 ],
					"textjustification" : 1
				}

			}
, 			{
				"box" : 				{
					"id" : "obj-33",
					"linecount" : 6,
					"maxclass" : "comment",
					"numinlets" : 1,
					"numoutlets" : 0,
					"patching_rect" : [ 590.5, 358.0, 22.0, 87.0 ],
					"style" : "",
					"text" : "F\nI\nL\nT\n\nQ",
					"textcolor" : [ 0.862745, 0.870588, 0.878431, 1.0 ],
					"textjustification" : 1
				}

			}
, 			{
				"box" : 				{
					"id" : "obj-32",
					"linecount" : 9,
					"maxclass" : "comment",
					"numinlets" : 1,
					"numoutlets" : 0,
					"patching_rect" : [ 567.666748, 358.0, 22.0, 127.0 ],
					"style" : "",
					"text" : "F\nI\nL\nT\n\nTYPE",
					"textcolor" : [ 0.862745, 0.870588, 0.878431, 1.0 ],
					"textjustification" : 1
				}

			}
, 			{
				"box" : 				{
					"id" : "obj-29",
					"linecount" : 8,
					"maxclass" : "comment",
					"numinlets" : 1,
					"numoutlets" : 0,
					"patching_rect" : [ 615.5, 358.0, 20.0, 114.0 ],
					"style" : "",
					"text" : "AMP\n\nATCK",
					"textcolor" : [ 0.862745, 0.870588, 0.878431, 1.0 ],
					"textjustification" : 1
				}

			}
, 			{
				"box" : 				{
					"id" : "obj-16",
					"linecount" : 8,
					"maxclass" : "comment",
					"numinlets" : 1,
					"numoutlets" : 0,
					"patching_rect" : [ 525.666748, 358.0, 20.0, 114.0 ],
					"style" : "",
					"text" : "CAR\n \nTYPE",
					"textcolor" : [ 0.862745, 0.870588, 0.878431, 1.0 ],
					"textjustification" : 1
				}

			}
, 			{
				"box" : 				{
					"id" : "obj-14",
					"linecount" : 8,
					"maxclass" : "comment",
					"numinlets" : 1,
					"numoutlets" : 0,
					"patching_rect" : [ 480.5, 358.0, 20.0, 114.0 ],
					"style" : "",
					"text" : "MOD\n \nTYPE",
					"textcolor" : [ 0.862745, 0.870588, 0.878431, 1.0 ],
					"textjustification" : 1
				}

			}
, 			{
				"box" : 				{
					"id" : "obj-7",
					"maxclass" : "newobj",
					"numinlets" : 0,
					"numoutlets" : 0,
					"patcher" : 					{
						"fileversion" : 1,
						"appversion" : 						{
							"major" : 7,
							"minor" : 2,
							"revision" : 4,
							"architecture" : "x86",
							"modernui" : 1
						}
,
						"rect" : [ 88.0, 129.0, 640.0, 480.0 ],
						"bglocked" : 0,
						"openinpresentation" : 0,
						"default_fontsize" : 12.0,
						"default_fontface" : 0,
						"default_fontname" : "Arial",
						"gridonopen" : 1,
						"gridsize" : [ 15.0, 15.0 ],
						"gridsnaponopen" : 1,
						"objectsnaponopen" : 1,
						"statusbarvisible" : 2,
						"toolbarvisible" : 1,
						"lefttoolbarpinned" : 0,
						"toptoolbarpinned" : 0,
						"righttoolbarpinned" : 0,
						"bottomtoolbarpinned" : 0,
						"toolbars_unpinned_last_save" : 0,
						"tallnewobj" : 0,
						"boxanimatetime" : 200,
						"enablehscroll" : 1,
						"enablevscroll" : 1,
						"devicewidth" : 0.0,
						"description" : "",
						"digest" : "",
						"tags" : "",
						"style" : "",
						"subpatcher_template" : "",
						"boxes" : [ 							{
								"box" : 								{
									"id" : "obj-69",
									"maxclass" : "newobj",
									"numinlets" : 2,
									"numoutlets" : 1,
									"outlettype" : [ "float" ],
									"patching_rect" : [ 356.166626, 648.021973, 31.0, 22.0 ],
									"style" : "",
									"text" : "+ 2."
								}

							}
, 							{
								"box" : 								{
									"id" : "obj-57",
									"maxclass" : "number",
									"numinlets" : 1,
									"numoutlets" : 2,
									"outlettype" : [ "", "bang" ],
									"parameter_enable" : 0,
									"patching_rect" : [ 217.333374, 126.794708, 50.0, 22.0 ],
									"style" : ""
								}

							}
, 							{
								"box" : 								{
									"color" : [ 0.941176, 0.690196, 0.196078, 1.0 ],
									"id" : "obj-100",
									"maxclass" : "newobj",
									"numinlets" : 1,
									"numoutlets" : 0,
									"patching_rect" : [ 50.0, 939.325806, 72.0, 22.0 ],
									"style" : "",
									"text" : "s sequence"
								}

							}
, 							{
								"box" : 								{
									"id" : "obj-30",
									"maxclass" : "newobj",
									"numinlets" : 0,
									"numoutlets" : 1,
									"outlettype" : [ "" ],
									"patching_rect" : [ 162.5, 865.825806, 96.0, 22.0 ],
									"style" : "",
									"text" : "r ---bassnotedur"
								}

							}
, 							{
								"box" : 								{
									"id" : "obj-102",
									"maxclass" : "newobj",
									"numinlets" : 4,
									"numoutlets" : 1,
									"outlettype" : [ "" ],
									"patcher" : 									{
										"fileversion" : 1,
										"appversion" : 										{
											"major" : 7,
											"minor" : 2,
											"revision" : 4,
											"architecture" : "x86",
											"modernui" : 1
										}
,
										"rect" : [ 59.0, 104.0, 640.0, 480.0 ],
										"bglocked" : 0,
										"openinpresentation" : 0,
										"default_fontsize" : 12.0,
										"default_fontface" : 0,
										"default_fontname" : "Arial",
										"gridonopen" : 1,
										"gridsize" : [ 15.0, 15.0 ],
										"gridsnaponopen" : 1,
										"objectsnaponopen" : 1,
										"statusbarvisible" : 2,
										"toolbarvisible" : 1,
										"lefttoolbarpinned" : 0,
										"toptoolbarpinned" : 0,
										"righttoolbarpinned" : 0,
										"bottomtoolbarpinned" : 0,
										"toolbars_unpinned_last_save" : 0,
										"tallnewobj" : 0,
										"boxanimatetime" : 200,
										"enablehscroll" : 1,
										"enablevscroll" : 1,
										"devicewidth" : 0.0,
										"description" : "",
										"digest" : "",
										"tags" : "",
										"style" : "",
										"subpatcher_template" : "",
										"boxes" : [ 											{
												"box" : 												{
													"id" : "obj-127",
													"maxclass" : "newobj",
													"numinlets" : 2,
													"numoutlets" : 1,
													"outlettype" : [ "int" ],
													"patching_rect" : [ 50.0, 238.0, 32.0, 22.0 ],
													"style" : "",
													"text" : "+ -6"
												}

											}
, 											{
												"box" : 												{
													"id" : "obj-11",
													"maxclass" : "newobj",
													"numinlets" : 2,
													"numoutlets" : 1,
													"outlettype" : [ "" ],
													"patching_rect" : [ 50.0, 291.0, 36.0, 22.0 ],
													"style" : "",
													"text" : "pack"
												}

											}
, 											{
												"box" : 												{
													"id" : "obj-6",
													"maxclass" : "newobj",
													"numinlets" : 3,
													"numoutlets" : 2,
													"outlettype" : [ "float", "float" ],
													"patching_rect" : [ 50.0, 263.0, 199.0, 22.0 ],
													"style" : "",
													"text" : "makenote 100 500 @repeatmode 1"
												}

											}
, 											{
												"box" : 												{
													"id" : "obj-24",
													"maxclass" : "newobj",
													"numinlets" : 1,
													"numoutlets" : 1,
													"outlettype" : [ "" ],
													"patching_rect" : [ 50.0, 185.0, 97.0, 22.0 ],
													"style" : "",
													"text" : "klo.quant.simple"
												}

											}
, 											{
												"box" : 												{
													"id" : "obj-29",
													"maxclass" : "newobj",
													"numinlets" : 2,
													"numoutlets" : 1,
													"outlettype" : [ "int" ],
													"patching_rect" : [ 50.0, 161.0, 29.5, 22.0 ],
													"style" : "",
													"text" : "int"
												}

											}
, 											{
												"box" : 												{
													"id" : "obj-4",
													"maxclass" : "newobj",
													"numinlets" : 2,
													"numoutlets" : 1,
													"outlettype" : [ "int" ],
													"patching_rect" : [ 69.500031, 100.0, 32.0, 22.0 ],
													"style" : "",
													"text" : "* 12"
												}

											}
, 											{
												"box" : 												{
													"fontface" : 0,
													"fontname" : "Arial",
													"fontsize" : 12.0,
													"id" : "obj-125",
													"maxclass" : "newobj",
													"numinlets" : 2,
													"numoutlets" : 1,
													"outlettype" : [ "int" ],
													"patching_rect" : [ 109.000031, 130.0, 29.5, 22.0 ],
													"style" : "",
													"text" : "+"
												}

											}
, 											{
												"box" : 												{
													"comment" : "",
													"id" : "obj-94",
													"maxclass" : "inlet",
													"numinlets" : 0,
													"numoutlets" : 1,
													"outlettype" : [ "bang" ],
													"patching_rect" : [ 50.0, 40.0, 30.0, 30.0 ],
													"style" : ""
												}

											}
, 											{
												"box" : 												{
													"comment" : "",
													"id" : "obj-95",
													"maxclass" : "inlet",
													"numinlets" : 0,
													"numoutlets" : 1,
													"outlettype" : [ "float" ],
													"patching_rect" : [ 85.0, 40.0, 30.0, 30.0 ],
													"style" : ""
												}

											}
, 											{
												"box" : 												{
													"comment" : "",
													"id" : "obj-97",
													"maxclass" : "inlet",
													"numinlets" : 0,
													"numoutlets" : 1,
													"outlettype" : [ "" ],
													"patching_rect" : [ 119.000031, 40.0, 30.0, 30.0 ],
													"style" : ""
												}

											}
, 											{
												"box" : 												{
													"comment" : "",
													"id" : "obj-100",
													"maxclass" : "inlet",
													"numinlets" : 0,
													"numoutlets" : 1,
													"outlettype" : [ "float" ],
													"patching_rect" : [ 230.0, 40.0, 30.0, 30.0 ],
													"style" : ""
												}

											}
, 											{
												"box" : 												{
													"comment" : "",
													"id" : "obj-101",
													"maxclass" : "outlet",
													"numinlets" : 1,
													"numoutlets" : 0,
													"patching_rect" : [ 50.0, 370.0, 30.0, 30.0 ],
													"style" : ""
												}

											}
 ],
										"lines" : [ 											{
												"patchline" : 												{
													"destination" : [ "obj-6", 2 ],
													"disabled" : 0,
													"hidden" : 0,
													"source" : [ "obj-100", 0 ]
												}

											}
, 											{
												"patchline" : 												{
													"destination" : [ "obj-101", 0 ],
													"disabled" : 0,
													"hidden" : 0,
													"source" : [ "obj-11", 0 ]
												}

											}
, 											{
												"patchline" : 												{
													"destination" : [ "obj-29", 1 ],
													"disabled" : 0,
													"hidden" : 0,
													"midpoints" : [ 118.500031, 155.0, 70.0, 155.0 ],
													"source" : [ "obj-125", 0 ]
												}

											}
, 											{
												"patchline" : 												{
													"destination" : [ "obj-6", 0 ],
													"disabled" : 0,
													"hidden" : 0,
													"source" : [ "obj-127", 0 ]
												}

											}
, 											{
												"patchline" : 												{
													"destination" : [ "obj-127", 0 ],
													"disabled" : 0,
													"hidden" : 0,
													"source" : [ "obj-24", 0 ]
												}

											}
, 											{
												"patchline" : 												{
													"destination" : [ "obj-24", 0 ],
													"disabled" : 0,
													"hidden" : 0,
													"source" : [ "obj-29", 0 ]
												}

											}
, 											{
												"patchline" : 												{
													"destination" : [ "obj-125", 0 ],
													"disabled" : 0,
													"hidden" : 0,
													"midpoints" : [ 79.000031, 128.5, 118.500031, 128.5 ],
													"source" : [ "obj-4", 0 ]
												}

											}
, 											{
												"patchline" : 												{
													"destination" : [ "obj-11", 1 ],
													"disabled" : 0,
													"hidden" : 0,
													"midpoints" : [ 239.5, 288.5, 76.5, 288.5 ],
													"source" : [ "obj-6", 1 ]
												}

											}
, 											{
												"patchline" : 												{
													"destination" : [ "obj-11", 0 ],
													"disabled" : 0,
													"hidden" : 0,
													"source" : [ "obj-6", 0 ]
												}

											}
, 											{
												"patchline" : 												{
													"destination" : [ "obj-29", 0 ],
													"disabled" : 0,
													"hidden" : 0,
													"source" : [ "obj-94", 0 ]
												}

											}
, 											{
												"patchline" : 												{
													"destination" : [ "obj-4", 0 ],
													"disabled" : 0,
													"hidden" : 0,
													"source" : [ "obj-95", 0 ]
												}

											}
, 											{
												"patchline" : 												{
													"destination" : [ "obj-125", 1 ],
													"disabled" : 0,
													"hidden" : 0,
													"source" : [ "obj-97", 0 ]
												}

											}
 ]
									}
,
									"patching_rect" : [ 50.0, 913.825806, 133.0, 22.0 ],
									"saved_object_attributes" : 									{
										"description" : "",
										"digest" : "",
										"globalpatchername" : "",
										"style" : "",
										"tags" : ""
									}
,
									"style" : "",
									"text" : "p addupandmakenotes"
								}

							}
, 							{
								"box" : 								{
									"id" : "obj-211",
									"maxclass" : "newobj",
									"numinlets" : 2,
									"numoutlets" : 1,
									"outlettype" : [ "float" ],
									"patching_rect" : [ 162.5, 888.825806, 42.0, 22.0 ],
									"style" : "",
									"text" : "* 500."
								}

							}
, 							{
								"box" : 								{
									"id" : "obj-158",
									"maxclass" : "newobj",
									"numinlets" : 6,
									"numoutlets" : 3,
									"outlettype" : [ "", "", "" ],
									"patching_rect" : [ 93.833374, 648.021973, 103.0, 22.0 ],
									"style" : "",
									"text" : "klosc /seqnotes/x"
								}

							}
, 							{
								"box" : 								{
									"id" : "obj-156",
									"maxclass" : "newobj",
									"numinlets" : 6,
									"numoutlets" : 3,
									"outlettype" : [ "", "", "" ],
									"patching_rect" : [ 137.666626, 419.069489, 115.0, 22.0 ],
									"style" : "",
									"text" : "klosc /seqoctaves/x"
								}

							}
, 							{
								"box" : 								{
									"id" : "obj-154",
									"maxclass" : "newobj",
									"numinlets" : 1,
									"numoutlets" : 1,
									"outlettype" : [ "" ],
									"patching_rect" : [ 93.833374, 704.592529, 84.0, 22.0 ],
									"style" : "",
									"text" : "vexpr $f1* 11."
								}

							}
, 							{
								"box" : 								{
									"id" : "obj-150",
									"maxclass" : "newobj",
									"numinlets" : 1,
									"numoutlets" : 1,
									"outlettype" : [ "" ],
									"patching_rect" : [ 137.666626, 491.498932, 78.0, 22.0 ],
									"style" : "",
									"text" : "vexpr $f1* 5."
								}

							}
, 							{
								"box" : 								{
									"fontsize" : 12.620059,
									"id" : "obj-143",
									"maxclass" : "comment",
									"numinlets" : 1,
									"numoutlets" : 0,
									"patching_rect" : [ 293.666626, 714.021973, 62.0, 21.0 ],
									"presentation" : 1,
									"presentation_rect" : [ 234.162231, 331.740967, 156.943573, 21.0 ],
									"style" : "",
									"text" : "Notes"
								}

							}
, 							{
								"box" : 								{
									"fontsize" : 12.620059,
									"id" : "obj-141",
									"maxclass" : "comment",
									"numinlets" : 1,
									"numoutlets" : 0,
									"patching_rect" : [ 299.666626, 491.498932, 75.5, 21.0 ],
									"presentation" : 1,
									"presentation_rect" : [ 234.85498, 189.981934, 172.637924, 21.0 ],
									"style" : "",
									"text" : "Octaves"
								}

							}
, 							{
								"box" : 								{
									"id" : "obj-32",
									"maxclass" : "newobj",
									"numinlets" : 2,
									"numoutlets" : 2,
									"outlettype" : [ "bang", "" ],
									"patching_rect" : [ 50.0, 874.825806, 36.0, 22.0 ],
									"style" : "",
									"text" : "sel 1"
								}

							}
, 							{
								"box" : 								{
									"id" : "obj-33",
									"maxclass" : "newobj",
									"numinlets" : 1,
									"numoutlets" : 3,
									"outlettype" : [ "int", "int", "int" ],
									"patching_rect" : [ 354.333252, 190.700165, 48.0, 22.0 ],
									"style" : "",
									"text" : "t i i i"
								}

							}
, 							{
								"box" : 								{
									"fontname" : "Arial",
									"fontsize" : 12.0,
									"id" : "obj-34",
									"maxclass" : "message",
									"numinlets" : 2,
									"numoutlets" : 1,
									"outlettype" : [ "" ],
									"patching_rect" : [ 325.833252, 225.896393, 52.0, 22.0 ],
									"style" : "",
									"text" : "fetch $1"
								}

							}
, 							{
								"box" : 								{
									"fontname" : "Arial",
									"fontsize" : 12.0,
									"id" : "obj-35",
									"maxclass" : "message",
									"numinlets" : 2,
									"numoutlets" : 1,
									"outlettype" : [ "" ],
									"patching_rect" : [ 72.333252, 460.123688, 52.0, 22.0 ],
									"style" : "",
									"text" : "fetch $1"
								}

							}
, 							{
								"box" : 								{
									"id" : "obj-36",
									"maxclass" : "newobj",
									"numinlets" : 1,
									"numoutlets" : 3,
									"outlettype" : [ "int", "int", "int" ],
									"patching_rect" : [ 62.666626, 434.123688, 40.0, 22.0 ],
									"style" : "",
									"text" : "t i i i"
								}

							}
, 							{
								"box" : 								{
									"id" : "obj-38",
									"maxclass" : "newobj",
									"numinlets" : 2,
									"numoutlets" : 4,
									"outlettype" : [ "int", "bang", "float", "" ],
									"patching_rect" : [ 293.666626, 100.0, 89.0, 22.0 ],
									"style" : "",
									"text" : "klo.dawn.client"
								}

							}
, 							{
								"box" : 								{
									"fontface" : 0,
									"fontname" : "Arial",
									"fontsize" : 12.0,
									"id" : "obj-118",
									"maxclass" : "newobj",
									"numinlets" : 2,
									"numoutlets" : 1,
									"outlettype" : [ "int" ],
									"patching_rect" : [ 62.666626, 408.123688, 29.5, 22.0 ],
									"style" : "",
									"text" : "int"
								}

							}
, 							{
								"box" : 								{
									"fontname" : "Arial",
									"fontsize" : 12.0,
									"id" : "obj-90",
									"maxclass" : "newobj",
									"numinlets" : 2,
									"numoutlets" : 1,
									"outlettype" : [ "int" ],
									"patching_rect" : [ 354.333252, 160.896393, 32.5, 22.0 ],
									"style" : "",
									"text" : "+ 1"
								}

							}
, 							{
								"box" : 								{
									"fontname" : "Arial",
									"fontsize" : 12.0,
									"id" : "obj-82",
									"maxclass" : "newobj",
									"numinlets" : 2,
									"numoutlets" : 1,
									"outlettype" : [ "int" ],
									"patching_rect" : [ 354.333252, 134.896393, 38.0, 22.0 ],
									"style" : "",
									"text" : "% 16"
								}

							}
, 							{
								"box" : 								{
									"id" : "obj-67",
									"maxclass" : "live.dial",
									"numinlets" : 1,
									"numoutlets" : 2,
									"outlettype" : [ "", "float" ],
									"parameter_enable" : 1,
									"patching_rect" : [ 165.333252, 165.396393, 83.0, 47.0 ],
									"presentation" : 1,
									"presentation_rect" : [ 341.945801, 78.981934, 77.548592, 47.0 ],
									"saved_attribute_attributes" : 									{
										"valueof" : 										{
											"parameter_linknames" : 1,
											"parameter_longname" : "AmpDecay[2]",
											"parameter_shortname" : "D",
											"parameter_type" : 1,
											"parameter_mmin" : 1.0,
											"parameter_mmax" : 32.0,
											"parameter_modmode" : 4,
											"parameter_initial_enable" : 1,
											"parameter_initial" : [ 16 ],
											"parameter_unitstyle" : 0
										}

									}
,
									"varname" : "AmpDecay[2]"
								}

							}
, 							{
								"box" : 								{
									"id" : "obj-42",
									"maxclass" : "live.dial",
									"numinlets" : 1,
									"numoutlets" : 2,
									"outlettype" : [ "", "float" ],
									"parameter_enable" : 1,
									"patching_rect" : [ 255.999878, 165.396393, 90.0, 47.0 ],
									"presentation" : 1,
									"presentation_rect" : [ 425.649048, 78.981934, 84.010971, 47.0 ],
									"saved_attribute_attributes" : 									{
										"valueof" : 										{
											"parameter_linknames" : 1,
											"parameter_longname" : "live.dial[10]",
											"parameter_shortname" : "Rotate",
											"parameter_type" : 1,
											"parameter_mmax" : 31.0,
											"parameter_modmode" : 4,
											"parameter_unitstyle" : 0
										}

									}
,
									"varname" : "live.dial[10]"
								}

							}
, 							{
								"box" : 								{
									"id" : "obj-16",
									"maxclass" : "live.dial",
									"numinlets" : 1,
									"numoutlets" : 2,
									"outlettype" : [ "", "float" ],
									"parameter_enable" : 1,
									"patching_rect" : [ 71.333252, 165.396393, 83.0, 47.0 ],
									"presentation" : 1,
									"presentation_rect" : [ 255.165283, 78.981934, 77.548592, 47.0 ],
									"saved_attribute_attributes" : 									{
										"valueof" : 										{
											"parameter_linknames" : 1,
											"parameter_longname" : "Dry/Wet[1]",
											"parameter_shortname" : "Dry/Wet",
											"parameter_type" : 1,
											"parameter_mmax" : 16.0,
											"parameter_modmode" : 4,
											"parameter_unitstyle" : 0
										}

									}
,
									"varname" : "Dry/Wet[1]"
								}

							}
, 							{
								"box" : 								{
									"fontname" : "Arial",
									"fontsize" : 12.0,
									"id" : "obj-44",
									"maxclass" : "newobj",
									"numinlets" : 6,
									"numoutlets" : 4,
									"outlettype" : [ "", "", "bang", "" ],
									"patching_rect" : [ 72.333252, 224.896393, 247.0, 22.0 ],
									"style" : "",
									"text" : "aw.bjork"
								}

							}
, 							{
								"box" : 								{
									"background" : 1,
									"bgcolor" : [ 0.094118, 0.113725, 0.137255, 1.0 ],
									"candicane2" : [ 0.921569, 0.94902, 0.05098, 1.0 ],
									"candicane3" : [ 0.0, 0.854902, 0.278431, 1.0 ],
									"candicane4" : [ 0.180392, 0.576471, 0.898039, 1.0 ],
									"candicane5" : [ 1.0, 1.0, 1.0, 1.0 ],
									"candicane6" : [ 1.0, 0.403922, 0.0, 1.0 ],
									"candicane7" : [ 1.0, 0.921569, 0.0, 1.0 ],
									"candicane8" : [ 0.180392, 0.576471, 0.898039, 1.0 ],
									"contdata" : 1,
									"ghostbar" : 50,
									"id" : "obj-116",
									"maxclass" : "multislider",
									"numinlets" : 1,
									"numoutlets" : 2,
									"outlettype" : [ "", "" ],
									"parameter_enable" : 1,
									"patching_rect" : [ 82.166626, 517.498901, 293.0, 116.0 ],
									"peakcolor" : [ 1.0, 1.0, 1.0, 1.0 ],
									"presentation" : 1,
									"presentation_rect" : [ 234.162231, 210.740967, 286.191223, 118.0 ],
									"saved_attribute_attributes" : 									{
										"valueof" : 										{
											"parameter_longname" : "decay[3]",
											"parameter_shortname" : "decay",
											"parameter_type" : 3,
											"parameter_invisible" : 1
										}

									}
,
									"setminmax" : [ 0.0, 5.0 ],
									"settype" : 0,
									"size" : 8,
									"slidercolor" : [ 1.0, 0.603922, 0.0, 1.0 ],
									"spacing" : 3,
									"style" : "",
									"thickness" : 1,
									"varname" : "multislider[2]"
								}

							}
, 							{
								"box" : 								{
									"background" : 1,
									"bgcolor" : [ 0.094118, 0.113725, 0.137255, 1.0 ],
									"candicane2" : [ 0.921569, 0.94902, 0.05098, 1.0 ],
									"candicane3" : [ 0.0, 0.854902, 0.278431, 1.0 ],
									"candicane4" : [ 0.180392, 0.576471, 0.898039, 1.0 ],
									"candicane5" : [ 1.0, 1.0, 1.0, 1.0 ],
									"candicane6" : [ 1.0, 0.403922, 0.0, 1.0 ],
									"candicane7" : [ 1.0, 0.921569, 0.0, 1.0 ],
									"candicane8" : [ 0.180392, 0.576471, 0.898039, 1.0 ],
									"contdata" : 1,
									"ghostbar" : 50,
									"id" : "obj-152",
									"maxclass" : "multislider",
									"numinlets" : 1,
									"numoutlets" : 2,
									"outlettype" : [ "", "" ],
									"parameter_enable" : 1,
									"patching_rect" : [ 93.833374, 673.021973, 136.5, 30.5 ],
									"peakcolor" : [ 1.0, 1.0, 1.0, 1.0 ],
									"saved_attribute_attributes" : 									{
										"valueof" : 										{
											"parameter_longname" : "multislider[2]",
											"parameter_shortname" : "multislider[1]",
											"parameter_type" : 3,
											"parameter_invisible" : 1
										}

									}
,
									"setminmax" : [ 0.0, 1.0 ],
									"size" : 8,
									"slidercolor" : [ 1.0, 0.603922, 0.0, 1.0 ],
									"spacing" : 3,
									"style" : "",
									"thickness" : 1,
									"varname" : "multislider[4]"
								}

							}
, 							{
								"box" : 								{
									"background" : 1,
									"bgcolor" : [ 0.094118, 0.113725, 0.137255, 1.0 ],
									"candicane2" : [ 0.921569, 0.94902, 0.05098, 1.0 ],
									"candicane3" : [ 0.0, 0.854902, 0.278431, 1.0 ],
									"candicane4" : [ 0.180392, 0.576471, 0.898039, 1.0 ],
									"candicane5" : [ 1.0, 1.0, 1.0, 1.0 ],
									"candicane6" : [ 1.0, 0.403922, 0.0, 1.0 ],
									"candicane7" : [ 1.0, 0.921569, 0.0, 1.0 ],
									"candicane8" : [ 0.180392, 0.576471, 0.898039, 1.0 ],
									"contdata" : 1,
									"ghostbar" : 50,
									"id" : "obj-148",
									"maxclass" : "multislider",
									"numinlets" : 1,
									"numoutlets" : 2,
									"outlettype" : [ "", "" ],
									"parameter_enable" : 1,
									"patching_rect" : [ 137.666626, 447.069489, 124.0, 36.0 ],
									"peakcolor" : [ 1.0, 1.0, 1.0, 1.0 ],
									"saved_attribute_attributes" : 									{
										"valueof" : 										{
											"parameter_longname" : "decay[2]",
											"parameter_shortname" : "decay",
											"parameter_type" : 3,
											"parameter_invisible" : 1
										}

									}
,
									"setminmax" : [ 0.0, 1.0 ],
									"size" : 8,
									"slidercolor" : [ 1.0, 0.603922, 0.0, 1.0 ],
									"spacing" : 3,
									"style" : "",
									"thickness" : 1,
									"varname" : "multislider[3]"
								}

							}
, 							{
								"box" : 								{
									"background" : 1,
									"bgcolor" : [ 0.094118, 0.113725, 0.137255, 1.0 ],
									"candicane2" : [ 0.921569, 0.94902, 0.05098, 1.0 ],
									"candicane3" : [ 0.0, 0.854902, 0.278431, 1.0 ],
									"candicane4" : [ 0.180392, 0.576471, 0.898039, 1.0 ],
									"candicane5" : [ 1.0, 1.0, 1.0, 1.0 ],
									"candicane6" : [ 1.0, 0.403922, 0.0, 1.0 ],
									"candicane7" : [ 1.0, 0.921569, 0.0, 1.0 ],
									"candicane8" : [ 0.180392, 0.576471, 0.898039, 1.0 ],
									"contdata" : 1,
									"ghostbar" : 50,
									"id" : "obj-46",
									"ignoreclick" : 1,
									"maxclass" : "multislider",
									"numinlets" : 1,
									"numoutlets" : 2,
									"outlettype" : [ "", "" ],
									"parameter_enable" : 1,
									"patching_rect" : [ 72.333252, 255.396393, 310.5, 58.0 ],
									"peakcolor" : [ 1.0, 1.0, 1.0, 1.0 ],
									"presentation" : 1,
									"presentation_rect" : [ 234.85498, 128.981934, 286.191223, 58.0 ],
									"saved_attribute_attributes" : 									{
										"valueof" : 										{
											"parameter_longname" : "multislider",
											"parameter_shortname" : "multislider",
											"parameter_type" : 3,
											"parameter_invisible" : 1
										}

									}
,
									"setminmax" : [ 0.0, 1.0 ],
									"settype" : 0,
									"size" : 16,
									"slidercolor" : [ 1.0, 0.603922, 0.0, 1.0 ],
									"spacing" : 3,
									"style" : "",
									"thickness" : 1,
									"varname" : "multislider"
								}

							}
, 							{
								"box" : 								{
									"background" : 1,
									"bgcolor" : [ 0.094118, 0.113725, 0.137255, 1.0 ],
									"candicane2" : [ 0.921569, 0.94902, 0.05098, 1.0 ],
									"candicane3" : [ 0.0, 0.854902, 0.278431, 1.0 ],
									"candicane4" : [ 0.180392, 0.576471, 0.898039, 1.0 ],
									"candicane5" : [ 1.0, 1.0, 1.0, 1.0 ],
									"candicane6" : [ 1.0, 0.403922, 0.0, 1.0 ],
									"candicane7" : [ 1.0, 0.921569, 0.0, 1.0 ],
									"candicane8" : [ 0.180392, 0.576471, 0.898039, 1.0 ],
									"contdata" : 1,
									"ghostbar" : 50,
									"id" : "obj-121",
									"maxclass" : "multislider",
									"numinlets" : 1,
									"numoutlets" : 2,
									"outlettype" : [ "", "" ],
									"parameter_enable" : 1,
									"patching_rect" : [ 64.666626, 738.021973, 293.0, 116.0 ],
									"peakcolor" : [ 1.0, 1.0, 1.0, 1.0 ],
									"presentation" : 1,
									"presentation_rect" : [ 234.162231, 351.5, 286.191223, 119.0 ],
									"saved_attribute_attributes" : 									{
										"valueof" : 										{
											"parameter_longname" : "multislider[1]",
											"parameter_shortname" : "multislider[1]",
											"parameter_type" : 3,
											"parameter_invisible" : 1
										}

									}
,
									"setminmax" : [ 0.0, 11.0 ],
									"settype" : 0,
									"size" : 8,
									"slidercolor" : [ 1.0, 0.603922, 0.0, 1.0 ],
									"spacing" : 3,
									"style" : "",
									"thickness" : 1,
									"varname" : "multislider[1]"
								}

							}
 ],
						"lines" : [ 							{
								"patchline" : 								{
									"destination" : [ "obj-100", 0 ],
									"disabled" : 0,
									"hidden" : 0,
									"source" : [ "obj-102", 0 ]
								}

							}
, 							{
								"patchline" : 								{
									"destination" : [ "obj-69", 0 ],
									"disabled" : 0,
									"hidden" : 0,
									"source" : [ "obj-116", 1 ]
								}

							}
, 							{
								"patchline" : 								{
									"destination" : [ "obj-36", 0 ],
									"disabled" : 0,
									"hidden" : 0,
									"source" : [ "obj-118", 0 ]
								}

							}
, 							{
								"patchline" : 								{
									"destination" : [ "obj-102", 2 ],
									"disabled" : 0,
									"hidden" : 0,
									"midpoints" : [ 348.166626, 859.825806, 135.5, 859.825806 ],
									"source" : [ "obj-121", 1 ]
								}

							}
, 							{
								"patchline" : 								{
									"destination" : [ "obj-150", 0 ],
									"disabled" : 0,
									"hidden" : 0,
									"source" : [ "obj-148", 0 ]
								}

							}
, 							{
								"patchline" : 								{
									"destination" : [ "obj-156", 0 ],
									"disabled" : 0,
									"hidden" : 0,
									"midpoints" : [ 147.166626, 486.498932, 129.666626, 486.498932, 129.666626, 412.498932, 147.166626, 412.498932 ],
									"source" : [ "obj-148", 0 ]
								}

							}
, 							{
								"patchline" : 								{
									"destination" : [ "obj-116", 0 ],
									"disabled" : 0,
									"hidden" : 0,
									"midpoints" : [ 147.166626, 512.998901, 91.666626, 512.998901 ],
									"source" : [ "obj-150", 0 ]
								}

							}
, 							{
								"patchline" : 								{
									"destination" : [ "obj-154", 0 ],
									"disabled" : 0,
									"hidden" : 0,
									"source" : [ "obj-152", 0 ]
								}

							}
, 							{
								"patchline" : 								{
									"destination" : [ "obj-158", 0 ],
									"disabled" : 0,
									"hidden" : 0,
									"midpoints" : [ 103.333374, 705.522095, 86.333374, 705.522095, 86.333374, 643.522095, 103.333374, 643.522095 ],
									"source" : [ "obj-152", 0 ]
								}

							}
, 							{
								"patchline" : 								{
									"destination" : [ "obj-121", 0 ],
									"disabled" : 0,
									"hidden" : 0,
									"midpoints" : [ 103.333374, 729.272095, 74.166626, 729.272095 ],
									"source" : [ "obj-154", 0 ]
								}

							}
, 							{
								"patchline" : 								{
									"destination" : [ "obj-148", 0 ],
									"disabled" : 0,
									"hidden" : 0,
									"source" : [ "obj-156", 0 ]
								}

							}
, 							{
								"patchline" : 								{
									"destination" : [ "obj-152", 0 ],
									"disabled" : 0,
									"hidden" : 0,
									"source" : [ "obj-158", 0 ]
								}

							}
, 							{
								"patchline" : 								{
									"destination" : [ "obj-44", 0 ],
									"disabled" : 0,
									"hidden" : 0,
									"source" : [ "obj-16", 0 ]
								}

							}
, 							{
								"patchline" : 								{
									"destination" : [ "obj-102", 3 ],
									"disabled" : 0,
									"hidden" : 0,
									"midpoints" : [ 172.0, 916.325806, 173.5, 916.325806 ],
									"source" : [ "obj-211", 0 ]
								}

							}
, 							{
								"patchline" : 								{
									"destination" : [ "obj-211", 0 ],
									"disabled" : 0,
									"hidden" : 0,
									"source" : [ "obj-30", 0 ]
								}

							}
, 							{
								"patchline" : 								{
									"destination" : [ "obj-102", 0 ],
									"disabled" : 0,
									"hidden" : 0,
									"midpoints" : [ 59.5, 891.053589, 59.5, 891.053589 ],
									"source" : [ "obj-32", 0 ]
								}

							}
, 							{
								"patchline" : 								{
									"destination" : [ "obj-118", 1 ],
									"disabled" : 0,
									"hidden" : 0,
									"midpoints" : [ 392.833252, 399.411896, 82.666626, 399.411896 ],
									"source" : [ "obj-33", 2 ]
								}

							}
, 							{
								"patchline" : 								{
									"destination" : [ "obj-34", 0 ],
									"disabled" : 0,
									"hidden" : 0,
									"midpoints" : [ 363.833252, 216.450195, 335.333252, 216.450195 ],
									"source" : [ "obj-33", 0 ]
								}

							}
, 							{
								"patchline" : 								{
									"destination" : [ "obj-44", 3 ],
									"disabled" : 0,
									"hidden" : 0,
									"midpoints" : [ 378.333252, 221.450195, 218.633255, 221.450195 ],
									"source" : [ "obj-33", 1 ]
								}

							}
, 							{
								"patchline" : 								{
									"destination" : [ "obj-46", 0 ],
									"disabled" : 0,
									"hidden" : 0,
									"midpoints" : [ 335.333252, 251.146393, 81.833252, 251.146393 ],
									"source" : [ "obj-34", 0 ]
								}

							}
, 							{
								"patchline" : 								{
									"destination" : [ "obj-116", 0 ],
									"disabled" : 0,
									"hidden" : 0,
									"midpoints" : [ 81.833252, 506.748932, 91.666626, 506.748932 ],
									"source" : [ "obj-35", 0 ]
								}

							}
, 							{
								"patchline" : 								{
									"destination" : [ "obj-121", 0 ],
									"disabled" : 0,
									"hidden" : 0,
									"midpoints" : [ 81.833252, 493.272064, 74.166626, 493.272064 ],
									"source" : [ "obj-35", 0 ]
								}

							}
, 							{
								"patchline" : 								{
									"destination" : [ "obj-35", 0 ],
									"disabled" : 0,
									"hidden" : 0,
									"midpoints" : [ 82.666626, 455.623688, 81.833252, 455.623688 ],
									"source" : [ "obj-36", 1 ]
								}

							}
, 							{
								"patchline" : 								{
									"destination" : [ "obj-57", 0 ],
									"disabled" : 0,
									"hidden" : 0,
									"source" : [ "obj-38", 0 ]
								}

							}
, 							{
								"patchline" : 								{
									"destination" : [ "obj-82", 0 ],
									"disabled" : 0,
									"hidden" : 0,
									"midpoints" : [ 303.166626, 127.948212, 363.833252, 127.948212 ],
									"source" : [ "obj-38", 0 ]
								}

							}
, 							{
								"patchline" : 								{
									"destination" : [ "obj-44", 2 ],
									"disabled" : 0,
									"hidden" : 0,
									"midpoints" : [ 265.499878, 217.146423, 173.033249, 217.146423 ],
									"source" : [ "obj-42", 0 ]
								}

							}
, 							{
								"patchline" : 								{
									"destination" : [ "obj-118", 0 ],
									"disabled" : 0,
									"hidden" : 0,
									"midpoints" : [ 233.833252, 340.51004, 72.166626, 340.51004 ],
									"source" : [ "obj-44", 2 ]
								}

							}
, 							{
								"patchline" : 								{
									"destination" : [ "obj-46", 0 ],
									"disabled" : 0,
									"hidden" : 0,
									"source" : [ "obj-44", 0 ]
								}

							}
, 							{
								"patchline" : 								{
									"destination" : [ "obj-32", 0 ],
									"disabled" : 0,
									"hidden" : 0,
									"midpoints" : [ 373.333252, 350.537506, 59.5, 350.537506 ],
									"source" : [ "obj-46", 1 ]
								}

							}
, 							{
								"patchline" : 								{
									"destination" : [ "obj-44", 1 ],
									"disabled" : 0,
									"hidden" : 0,
									"midpoints" : [ 174.833252, 213.646423, 127.43325, 213.646423 ],
									"source" : [ "obj-67", 0 ]
								}

							}
, 							{
								"patchline" : 								{
									"destination" : [ "obj-102", 1 ],
									"disabled" : 0,
									"hidden" : 0,
									"midpoints" : [ 365.666626, 858.064209, 97.5, 858.064209 ],
									"source" : [ "obj-69", 0 ]
								}

							}
, 							{
								"patchline" : 								{
									"destination" : [ "obj-90", 0 ],
									"disabled" : 0,
									"hidden" : 0,
									"source" : [ "obj-82", 0 ]
								}

							}
, 							{
								"patchline" : 								{
									"destination" : [ "obj-33", 0 ],
									"disabled" : 0,
									"hidden" : 0,
									"source" : [ "obj-90", 0 ]
								}

							}
 ]
					}
,
					"patching_rect" : [ 508.666748, 109.603607, 77.0, 22.0 ],
					"saved_object_attributes" : 					{
						"description" : "",
						"digest" : "",
						"globalpatchername" : "",
						"style" : "",
						"tags" : ""
					}
,
					"style" : "",
					"text" : "p sequencer"
				}

			}
, 			{
				"box" : 				{
					"id" : "obj-39",
					"maxclass" : "newobj",
					"numinlets" : 1,
					"numoutlets" : 2,
					"outlettype" : [ "bang", "int" ],
					"patching_rect" : [ 226.0, 408.727295, 34.0, 22.0 ],
					"style" : "",
					"text" : "t b 0"
				}

			}
, 			{
				"box" : 				{
					"id" : "obj-6",
					"maxclass" : "newobj",
					"numinlets" : 2,
					"numoutlets" : 2,
					"outlettype" : [ "", "" ],
					"patching_rect" : [ 435.5, 492.0, 62.0, 22.0 ],
					"style" : "",
					"text" : "zl.change"
				}

			}
, 			{
				"box" : 				{
					"format" : 6,
					"id" : "obj-103",
					"maxclass" : "flonum",
					"maximum" : 1.0,
					"minimum" : 0.0001,
					"numinlets" : 1,
					"numoutlets" : 2,
					"outlettype" : [ "", "bang" ],
					"parameter_enable" : 0,
					"patching_rect" : [ 1125.0, 300.0, 50.0, 22.0 ],
					"style" : ""
				}

			}
, 			{
				"box" : 				{
					"id" : "obj-99",
					"maxclass" : "message",
					"numinlets" : 2,
					"numoutlets" : 1,
					"outlettype" : [ "" ],
					"patching_rect" : [ 1040.0, 379.0, 104.0, 22.0 ],
					"style" : "",
					"text" : "90.597458"
				}

			}
, 			{
				"box" : 				{
					"fontname" : "Arial",
					"fontsize" : 12.0,
					"id" : "obj-95",
					"maxclass" : "newobj",
					"numinlets" : 1,
					"numoutlets" : 1,
					"outlettype" : [ "" ],
					"patching_rect" : [ 1125.0, 345.0, 115.0, 22.0 ],
					"style" : "",
					"text" : "expr pow($f1*5\\,2.8)"
				}

			}
, 			{
				"box" : 				{
					"id" : "obj-87",
					"linecount" : 9,
					"maxclass" : "comment",
					"numinlets" : 1,
					"numoutlets" : 0,
					"patching_rect" : [ 548.0, 358.0, 22.0, 127.0 ],
					"style" : "",
					"text" : "F\nI\nL\nT\n\nFREQ",
					"textcolor" : [ 0.862745, 0.870588, 0.878431, 1.0 ],
					"textjustification" : 1
				}

			}
, 			{
				"box" : 				{
					"id" : "obj-86",
					"linecount" : 9,
					"maxclass" : "comment",
					"numinlets" : 1,
					"numoutlets" : 0,
					"patching_rect" : [ 737.0, 521.0, 23.0, 127.0 ],
					"style" : "",
					"text" : "WAVESHAPE",
					"textcolor" : [ 0.862745, 0.870588, 0.878431, 1.0 ],
					"textjustification" : 1
				}

			}
, 			{
				"box" : 				{
					"id" : "obj-85",
					"linecount" : 7,
					"maxclass" : "comment",
					"numinlets" : 1,
					"numoutlets" : 0,
					"patching_rect" : [ 458.5, 358.0, 20.0, 100.0 ],
					"style" : "",
					"text" : "MOD\n \nVOL",
					"textcolor" : [ 0.862745, 0.870588, 0.878431, 1.0 ],
					"textjustification" : 1
				}

			}
, 			{
				"box" : 				{
					"id" : "obj-84",
					"linecount" : 8,
					"maxclass" : "comment",
					"numinlets" : 1,
					"numoutlets" : 0,
					"patching_rect" : [ 503.666748, 358.0, 20.0, 114.0 ],
					"style" : "",
					"text" : "CAR\n \nF\nREQ",
					"textcolor" : [ 0.862745, 0.870588, 0.878431, 1.0 ],
					"textjustification" : 1
				}

			}
, 			{
				"box" : 				{
					"id" : "obj-83",
					"linecount" : 8,
					"maxclass" : "comment",
					"numinlets" : 1,
					"numoutlets" : 0,
					"patching_rect" : [ 435.5, 358.0, 20.0, 114.0 ],
					"style" : "",
					"text" : "MOD\n \nF\nREQ",
					"textcolor" : [ 0.862745, 0.870588, 0.878431, 1.0 ],
					"textjustification" : 1
				}

			}
, 			{
				"box" : 				{
					"id" : "obj-75",
					"maxclass" : "newobj",
					"numinlets" : 1,
					"numoutlets" : 2,
					"outlettype" : [ "bang", "" ],
					"patching_rect" : [ 312.0, 244.0, 30.0, 22.0 ],
					"style" : "",
					"text" : "t b l"
				}

			}
, 			{
				"box" : 				{
					"id" : "obj-74",
					"maxclass" : "newobj",
					"numinlets" : 2,
					"numoutlets" : 2,
					"outlettype" : [ "int", "int" ],
					"patching_rect" : [ 312.0, 69.0, 57.0, 22.0 ],
					"style" : "",
					"text" : "stripnote"
				}

			}
, 			{
				"box" : 				{
					"id" : "obj-73",
					"maxclass" : "newobj",
					"numinlets" : 1,
					"numoutlets" : 2,
					"outlettype" : [ "int", "int" ],
					"patching_rect" : [ 312.0, 41.0, 57.0, 22.0 ],
					"style" : "",
					"text" : "unpack"
				}

			}
, 			{
				"box" : 				{
					"color" : [ 0.941176, 0.690196, 0.196078, 1.0 ],
					"id" : "obj-72",
					"maxclass" : "newobj",
					"numinlets" : 0,
					"numoutlets" : 1,
					"outlettype" : [ "" ],
					"patching_rect" : [ 312.0, 14.0, 70.0, 22.0 ],
					"style" : "",
					"text" : "r sequence"
				}

			}
, 			{
				"box" : 				{
					"id" : "obj-66",
					"maxclass" : "newobj",
					"numinlets" : 1,
					"numoutlets" : 0,
					"patching_rect" : [ 121.5, 811.0, 137.0, 22.0 ],
					"style" : "",
					"text" : "udpsend localhost 8000"
				}

			}
, 			{
				"box" : 				{
					"id" : "obj-65",
					"maxclass" : "message",
					"numinlets" : 2,
					"numoutlets" : 1,
					"outlettype" : [ "" ],
					"patching_rect" : [ 121.5, 750.0, 141.0, 22.0 ],
					"style" : "",
					"text" : "60 62 63 65 67 68 70 72"
				}

			}
, 			{
				"box" : 				{
					"id" : "obj-63",
					"maxclass" : "newobj",
					"numinlets" : 3,
					"numoutlets" : 1,
					"outlettype" : [ "" ],
					"patching_rect" : [ 121.5, 781.0, 89.0, 22.0 ],
					"style" : "",
					"text" : "klo.quant.send"
				}

			}
, 			{
				"box" : 				{
					"id" : "obj-53",
					"maxclass" : "toggle",
					"numinlets" : 1,
					"numoutlets" : 1,
					"outlettype" : [ "int" ],
					"parameter_enable" : 0,
					"patching_rect" : [ 496.666748, 52.0, 24.0, 24.0 ],
					"style" : ""
				}

			}
, 			{
				"box" : 				{
					"id" : "obj-47",
					"maxclass" : "newobj",
					"numinlets" : 3,
					"numoutlets" : 2,
					"outlettype" : [ "", "" ],
					"patching_rect" : [ 496.666748, 82.0, 89.0, 22.0 ],
					"style" : "",
					"text" : "klo.dawn.clock"
				}

			}
, 			{
				"box" : 				{
					"id" : "obj-18",
					"maxclass" : "button",
					"numinlets" : 1,
					"numoutlets" : 1,
					"outlettype" : [ "bang" ],
					"patching_rect" : [ 226.0, 373.727295, 24.0, 24.0 ],
					"style" : ""
				}

			}
, 			{
				"box" : 				{
					"id" : "obj-10",
					"maxclass" : "newobj",
					"numinlets" : 1,
					"numoutlets" : 3,
					"outlettype" : [ "int", "", "int" ],
					"patching_rect" : [ 435.5, 516.0, 49.0, 22.0 ],
					"style" : "",
					"text" : "t 0 l 1"
				}

			}
, 			{
				"box" : 				{
					"id" : "obj-9",
					"linecount" : 3,
					"maxclass" : "comment",
					"numinlets" : 1,
					"numoutlets" : 0,
					"patching_rect" : [ 33.0, 651.272705, 75.0, 47.0 ],
					"style" : "",
					"text" : "0: alle\n1: client 1\n2: client 2 ..."
				}

			}
, 			{
				"box" : 				{
					"id" : "obj-52",
					"maxclass" : "newobj",
					"numinlets" : 3,
					"numoutlets" : 1,
					"outlettype" : [ "" ],
					"patching_rect" : [ 43.0, 464.0, 69.0, 22.0 ],
					"style" : "",
					"text" : "clip 0 9999"
				}

			}
, 			{
				"box" : 				{
					"id" : "obj-49",
					"maxclass" : "newobj",
					"numinlets" : 2,
					"numoutlets" : 1,
					"outlettype" : [ "int" ],
					"patching_rect" : [ 43.0, 434.0, 29.5, 22.0 ],
					"style" : "",
					"text" : "i"
				}

			}
, 			{
				"box" : 				{
					"id" : "obj-48",
					"maxclass" : "number",
					"maximum" : 1,
					"minimum" : 0,
					"numinlets" : 1,
					"numoutlets" : 2,
					"outlettype" : [ "", "bang" ],
					"parameter_enable" : 0,
					"patching_rect" : [ 120.0, 615.0, 50.0, 22.0 ],
					"style" : ""
				}

			}
, 			{
				"box" : 				{
					"id" : "obj-43",
					"maxclass" : "newobj",
					"numinlets" : 3,
					"numoutlets" : 1,
					"outlettype" : [ "" ],
					"patching_rect" : [ 120.0, 651.272705, 180.0, 22.0 ],
					"style" : "",
					"text" : "join 3 @triggers 0"
				}

			}
, 			{
				"box" : 				{
					"id" : "obj-41",
					"items" : [ "play", ",", "synthParams", ",", "outputParams" ],
					"maxclass" : "umenu",
					"numinlets" : 1,
					"numoutlets" : 3,
					"outlettype" : [ "int", "", "" ],
					"parameter_enable" : 0,
					"patching_rect" : [ 176.0, 615.0, 100.0, 22.0 ],
					"style" : ""
				}

			}
, 			{
				"box" : 				{
					"id" : "obj-40",
					"maxclass" : "newobj",
					"numinlets" : 1,
					"numoutlets" : 1,
					"outlettype" : [ "" ],
					"patching_rect" : [ 120.0, 675.272705, 126.0, 22.0 ],
					"style" : "",
					"text" : "prepend /toWebAudio"
				}

			}
, 			{
				"box" : 				{
					"id" : "obj-11",
					"maxclass" : "newobj",
					"numinlets" : 1,
					"numoutlets" : 2,
					"outlettype" : [ "", "" ],
					"patching_rect" : [ 43.0, 408.0, 168.0, 22.0 ],
					"style" : "",
					"text" : "OSC-route /clientArrayLength"
				}

			}
, 			{
				"box" : 				{
					"id" : "obj-2",
					"maxclass" : "newobj",
					"numinlets" : 1,
					"numoutlets" : 1,
					"outlettype" : [ "" ],
					"patching_rect" : [ 43.0, 381.0, 106.0, 22.0 ],
					"style" : "",
					"text" : "udpreceive 57120"
				}

			}
, 			{
				"box" : 				{
					"id" : "obj-37",
					"maxclass" : "message",
					"numinlets" : 2,
					"numoutlets" : 1,
					"outlettype" : [ "" ],
					"patching_rect" : [ 312.0, 217.0, 69.0, 22.0 ],
					"style" : "",
					"text" : "select 4 $1"
				}

			}
, 			{
				"box" : 				{
					"id" : "obj-31",
					"maxclass" : "newobj",
					"numinlets" : 3,
					"numoutlets" : 1,
					"outlettype" : [ "" ],
					"patching_rect" : [ 312.0, 126.0, 62.0, 22.0 ],
					"style" : "",
					"text" : "clip 48 84"
				}

			}
, 			{
				"box" : 				{
					"id" : "obj-26",
					"maxclass" : "number",
					"numinlets" : 1,
					"numoutlets" : 2,
					"outlettype" : [ "", "bang" ],
					"parameter_enable" : 0,
					"patching_rect" : [ 312.0, 96.0, 50.0, 22.0 ],
					"style" : ""
				}

			}
, 			{
				"box" : 				{
					"id" : "obj-24",
					"maxclass" : "newobj",
					"numinlets" : 1,
					"numoutlets" : 1,
					"outlettype" : [ "" ],
					"patching_rect" : [ 312.0, 156.0, 34.0, 22.0 ],
					"style" : "",
					"text" : "mtof"
				}

			}
, 			{
				"box" : 				{
					"id" : "obj-23",
					"maxclass" : "newobj",
					"numinlets" : 6,
					"numoutlets" : 1,
					"outlettype" : [ "" ],
					"patching_rect" : [ 312.0, 186.0, 199.0, 22.0 ],
					"style" : "",
					"text" : "scale 130.81279 1046.502319 0. 1."
				}

			}
, 			{
				"box" : 				{
					"id" : "obj-22",
					"maxclass" : "message",
					"numinlets" : 2,
					"numoutlets" : 1,
					"outlettype" : [ "" ],
					"patching_rect" : [ 428.5, 244.0, 183.0, 22.0 ],
					"style" : "",
					"text" : "read webaudioPattrSettings.json"
				}

			}
, 			{
				"box" : 				{
					"id" : "obj-21",
					"maxclass" : "newobj",
					"numinlets" : 1,
					"numoutlets" : 1,
					"outlettype" : [ "bang" ],
					"patching_rect" : [ 428.5, 214.0, 60.0, 22.0 ],
					"style" : "",
					"text" : "loadbang"
				}

			}
, 			{
				"box" : 				{
					"id" : "obj-20",
					"maxclass" : "newobj",
					"numinlets" : 1,
					"numoutlets" : 2,
					"outlettype" : [ "bang", "int" ],
					"patching_rect" : [ 623.5, 214.0, 34.0, 22.0 ],
					"style" : "",
					"text" : "t b 1"
				}

			}
, 			{
				"box" : 				{
					"id" : "obj-19",
					"maxclass" : "number",
					"numinlets" : 1,
					"numoutlets" : 2,
					"outlettype" : [ "", "bang" ],
					"parameter_enable" : 0,
					"patching_rect" : [ 623.5, 184.0, 50.0, 22.0 ],
					"style" : ""
				}

			}
, 			{
				"box" : 				{
					"id" : "obj-17",
					"maxclass" : "message",
					"numinlets" : 2,
					"numoutlets" : 1,
					"outlettype" : [ "" ],
					"patching_rect" : [ 623.5, 244.0, 185.0, 22.0 ],
					"style" : "",
					"text" : "write webaudioPattrSettings.json"
				}

			}
, 			{
				"box" : 				{
					"id" : "obj-15",
					"maxclass" : "message",
					"numinlets" : 2,
					"numoutlets" : 1,
					"outlettype" : [ "" ],
					"patching_rect" : [ 638.5, 268.0, 54.0, 22.0 ],
					"style" : "",
					"text" : "store $1"
				}

			}
, 			{
				"box" : 				{
					"id" : "obj-13",
					"maxclass" : "newobj",
					"numinlets" : 1,
					"numoutlets" : 4,
					"outlettype" : [ "", "", "", "" ],
					"patching_rect" : [ 702.0, 298.0, 58.0, 22.0 ],
					"style" : "",
					"text" : "autopattr",
					"varname" : "u279000617"
				}

			}
, 			{
				"box" : 				{
					"id" : "obj-12",
					"maxclass" : "newobj",
					"numinlets" : 1,
					"numoutlets" : 1,
					"outlettype" : [ "" ],
					"patching_rect" : [ 623.5, 298.0, 75.0, 22.0 ],
					"saved_object_attributes" : 					{
						"client_rect" : [ 4, 212, 1280, 968 ],
						"parameter_enable" : 0,
						"storage_rect" : [ 25, 69, 625, 369 ]
					}
,
					"style" : "",
					"text" : "pattrstorage",
					"varname" : "u616000614"
				}

			}
, 			{
				"box" : 				{
					"contdata" : 1,
					"id" : "obj-8",
					"maxclass" : "multislider",
					"numinlets" : 1,
					"numoutlets" : 2,
					"outlettype" : [ "", "" ],
					"parameter_enable" : 0,
					"patching_rect" : [ 435.5, 358.0, 248.5, 127.0 ],
					"setminmax" : [ 0.0, 1.0 ],
					"setstyle" : 1,
					"size" : 11,
					"slidercolor" : [ 0.952941, 0.564706, 0.098039, 1.0 ],
					"spacing" : 2,
					"style" : ""
				}

			}
, 			{
				"box" : 				{
					"id" : "obj-1",
					"maxclass" : "newobj",
					"numinlets" : 1,
					"numoutlets" : 0,
					"patching_rect" : [ 120.0, 699.272705, 144.0, 22.0 ],
					"style" : "",
					"text" : "udpsend localhost 57121"
				}

			}
, 			{
				"box" : 				{
					"id" : "obj-50",
					"maxclass" : "message",
					"numinlets" : 2,
					"numoutlets" : 1,
					"outlettype" : [ "" ],
					"patching_rect" : [ 43.0, 492.0, 50.0, 22.0 ],
					"style" : "",
					"text" : "max $1"
				}

			}
, 			{
				"box" : 				{
					"contdata" : 1,
					"id" : "obj-3",
					"maxclass" : "multislider",
					"numinlets" : 1,
					"numoutlets" : 2,
					"outlettype" : [ "", "" ],
					"parameter_enable" : 0,
					"patching_rect" : [ 602.5, 521.0, 264.5, 152.272705 ],
					"setminmax" : [ 0.0, 1.0 ],
					"setstyle" : 1,
					"size" : 10,
					"slidercolor" : [ 0.701961, 0.415686, 0.886275, 1.0 ],
					"spacing" : 2,
					"style" : ""
				}

			}
 ],
		"lines" : [ 			{
				"patchline" : 				{
					"destination" : [ "obj-76", 0 ],
					"disabled" : 0,
					"hidden" : 0,
					"source" : [ "obj-10", 0 ]
				}

			}
, 			{
				"patchline" : 				{
					"destination" : [ "obj-77", 0 ],
					"disabled" : 0,
					"hidden" : 0,
					"source" : [ "obj-10", 2 ]
				}

			}
, 			{
				"patchline" : 				{
					"destination" : [ "obj-78", 0 ],
					"disabled" : 0,
					"hidden" : 0,
					"source" : [ "obj-10", 1 ]
				}

			}
, 			{
				"patchline" : 				{
					"destination" : [ "obj-95", 0 ],
					"disabled" : 0,
					"hidden" : 0,
					"source" : [ "obj-103", 0 ]
				}

			}
, 			{
				"patchline" : 				{
					"destination" : [ "obj-49", 0 ],
					"disabled" : 0,
					"hidden" : 0,
					"source" : [ "obj-11", 0 ]
				}

			}
, 			{
				"patchline" : 				{
					"destination" : [ "obj-12", 0 ],
					"disabled" : 0,
					"hidden" : 0,
					"source" : [ "obj-15", 0 ]
				}

			}
, 			{
				"patchline" : 				{
					"destination" : [ "obj-12", 0 ],
					"disabled" : 0,
					"hidden" : 0,
					"source" : [ "obj-17", 0 ]
				}

			}
, 			{
				"patchline" : 				{
					"destination" : [ "obj-39", 0 ],
					"disabled" : 0,
					"hidden" : 0,
					"source" : [ "obj-18", 0 ]
				}

			}
, 			{
				"patchline" : 				{
					"destination" : [ "obj-20", 0 ],
					"disabled" : 0,
					"hidden" : 0,
					"source" : [ "obj-19", 0 ]
				}

			}
, 			{
				"patchline" : 				{
					"destination" : [ "obj-11", 0 ],
					"disabled" : 0,
					"hidden" : 0,
					"source" : [ "obj-2", 0 ]
				}

			}
, 			{
				"patchline" : 				{
					"destination" : [ "obj-15", 0 ],
					"disabled" : 0,
					"hidden" : 0,
					"source" : [ "obj-20", 1 ]
				}

			}
, 			{
				"patchline" : 				{
					"destination" : [ "obj-17", 0 ],
					"disabled" : 0,
					"hidden" : 0,
					"source" : [ "obj-20", 0 ]
				}

			}
, 			{
				"patchline" : 				{
					"destination" : [ "obj-22", 0 ],
					"disabled" : 0,
					"hidden" : 0,
					"source" : [ "obj-21", 0 ]
				}

			}
, 			{
				"patchline" : 				{
					"destination" : [ "obj-12", 0 ],
					"disabled" : 0,
					"hidden" : 0,
					"midpoints" : [ 438.0, 281.5, 633.0, 281.5 ],
					"source" : [ "obj-22", 0 ]
				}

			}
, 			{
				"patchline" : 				{
					"destination" : [ "obj-37", 0 ],
					"disabled" : 0,
					"hidden" : 0,
					"source" : [ "obj-23", 0 ]
				}

			}
, 			{
				"patchline" : 				{
					"destination" : [ "obj-23", 0 ],
					"disabled" : 0,
					"hidden" : 0,
					"source" : [ "obj-24", 0 ]
				}

			}
, 			{
				"patchline" : 				{
					"destination" : [ "obj-31", 0 ],
					"disabled" : 0,
					"hidden" : 0,
					"source" : [ "obj-26", 0 ]
				}

			}
, 			{
				"patchline" : 				{
					"destination" : [ "obj-46", 0 ],
					"disabled" : 0,
					"hidden" : 0,
					"source" : [ "obj-3", 0 ]
				}

			}
, 			{
				"patchline" : 				{
					"destination" : [ "obj-24", 0 ],
					"disabled" : 0,
					"hidden" : 0,
					"source" : [ "obj-31", 0 ]
				}

			}
, 			{
				"patchline" : 				{
					"destination" : [ "obj-75", 0 ],
					"disabled" : 0,
					"hidden" : 0,
					"source" : [ "obj-37", 0 ]
				}

			}
, 			{
				"patchline" : 				{
					"destination" : [ "obj-62", 0 ],
					"disabled" : 0,
					"hidden" : 0,
					"source" : [ "obj-39", 0 ]
				}

			}
, 			{
				"patchline" : 				{
					"destination" : [ "obj-80", 0 ],
					"disabled" : 0,
					"hidden" : 0,
					"source" : [ "obj-39", 1 ]
				}

			}
, 			{
				"patchline" : 				{
					"destination" : [ "obj-1", 0 ],
					"disabled" : 0,
					"hidden" : 0,
					"source" : [ "obj-40", 0 ]
				}

			}
, 			{
				"patchline" : 				{
					"destination" : [ "obj-43", 1 ],
					"disabled" : 0,
					"hidden" : 0,
					"midpoints" : [ 226.0, 643.636353, 210.0, 643.636353 ],
					"source" : [ "obj-41", 1 ]
				}

			}
, 			{
				"patchline" : 				{
					"destination" : [ "obj-54", 1 ],
					"disabled" : 0,
					"hidden" : 0,
					"source" : [ "obj-42", 0 ]
				}

			}
, 			{
				"patchline" : 				{
					"destination" : [ "obj-40", 0 ],
					"disabled" : 0,
					"hidden" : 0,
					"source" : [ "obj-43", 0 ]
				}

			}
, 			{
				"patchline" : 				{
					"destination" : [ "obj-90", 1 ],
					"disabled" : 0,
					"hidden" : 0,
					"source" : [ "obj-43", 0 ]
				}

			}
, 			{
				"patchline" : 				{
					"destination" : [ "obj-91", 0 ],
					"disabled" : 0,
					"hidden" : 0,
					"source" : [ "obj-43", 0 ]
				}

			}
, 			{
				"patchline" : 				{
					"destination" : [ "obj-42", 0 ],
					"disabled" : 0,
					"hidden" : 0,
					"source" : [ "obj-45", 0 ]
				}

			}
, 			{
				"patchline" : 				{
					"destination" : [ "obj-51", 0 ],
					"disabled" : 0,
					"hidden" : 0,
					"source" : [ "obj-46", 0 ]
				}

			}
, 			{
				"patchline" : 				{
					"destination" : [ "obj-43", 0 ],
					"disabled" : 0,
					"hidden" : 0,
					"source" : [ "obj-48", 0 ]
				}

			}
, 			{
				"patchline" : 				{
					"destination" : [ "obj-52", 0 ],
					"disabled" : 0,
					"hidden" : 0,
					"source" : [ "obj-49", 0 ]
				}

			}
, 			{
				"patchline" : 				{
					"destination" : [ "obj-59", 0 ],
					"disabled" : 0,
					"hidden" : 0,
					"source" : [ "obj-50", 0 ]
				}

			}
, 			{
				"patchline" : 				{
					"destination" : [ "obj-64", 0 ],
					"disabled" : 0,
					"hidden" : 0,
					"source" : [ "obj-51", 0 ]
				}

			}
, 			{
				"patchline" : 				{
					"destination" : [ "obj-82", 0 ],
					"disabled" : 0,
					"hidden" : 0,
					"source" : [ "obj-51", 2 ]
				}

			}
, 			{
				"patchline" : 				{
					"destination" : [ "obj-88", 0 ],
					"disabled" : 0,
					"hidden" : 0,
					"source" : [ "obj-51", 1 ]
				}

			}
, 			{
				"patchline" : 				{
					"destination" : [ "obj-50", 0 ],
					"disabled" : 0,
					"hidden" : 0,
					"source" : [ "obj-52", 0 ]
				}

			}
, 			{
				"patchline" : 				{
					"destination" : [ "obj-47", 0 ],
					"disabled" : 0,
					"hidden" : 0,
					"source" : [ "obj-53", 0 ]
				}

			}
, 			{
				"patchline" : 				{
					"destination" : [ "obj-48", 0 ],
					"disabled" : 0,
					"hidden" : 0,
					"source" : [ "obj-57", 0 ]
				}

			}
, 			{
				"patchline" : 				{
					"destination" : [ "obj-10", 0 ],
					"disabled" : 0,
					"hidden" : 0,
					"source" : [ "obj-6", 0 ]
				}

			}
, 			{
				"patchline" : 				{
					"destination" : [ "obj-66", 0 ],
					"disabled" : 0,
					"hidden" : 0,
					"source" : [ "obj-63", 0 ]
				}

			}
, 			{
				"patchline" : 				{
					"destination" : [ "obj-63", 0 ],
					"disabled" : 0,
					"hidden" : 0,
					"source" : [ "obj-65", 0 ]
				}

			}
, 			{
				"patchline" : 				{
					"destination" : [ "obj-73", 0 ],
					"disabled" : 0,
					"hidden" : 0,
					"source" : [ "obj-72", 0 ]
				}

			}
, 			{
				"patchline" : 				{
					"destination" : [ "obj-74", 1 ],
					"disabled" : 0,
					"hidden" : 0,
					"source" : [ "obj-73", 1 ]
				}

			}
, 			{
				"patchline" : 				{
					"destination" : [ "obj-74", 0 ],
					"disabled" : 0,
					"hidden" : 0,
					"source" : [ "obj-73", 0 ]
				}

			}
, 			{
				"patchline" : 				{
					"destination" : [ "obj-26", 0 ],
					"disabled" : 0,
					"hidden" : 0,
					"source" : [ "obj-74", 0 ]
				}

			}
, 			{
				"patchline" : 				{
					"destination" : [ "obj-18", 0 ],
					"disabled" : 0,
					"hidden" : 0,
					"source" : [ "obj-75", 0 ]
				}

			}
, 			{
				"patchline" : 				{
					"destination" : [ "obj-8", 0 ],
					"disabled" : 0,
					"hidden" : 0,
					"source" : [ "obj-75", 1 ]
				}

			}
, 			{
				"patchline" : 				{
					"destination" : [ "obj-43", 2 ],
					"disabled" : 0,
					"hidden" : 0,
					"source" : [ "obj-79", 0 ]
				}

			}
, 			{
				"patchline" : 				{
					"destination" : [ "obj-6", 0 ],
					"disabled" : 0,
					"hidden" : 0,
					"source" : [ "obj-8", 0 ]
				}

			}
, 			{
				"patchline" : 				{
					"destination" : [ "obj-41", 0 ],
					"disabled" : 0,
					"hidden" : 0,
					"source" : [ "obj-81", 0 ]
				}

			}
, 			{
				"patchline" : 				{
					"destination" : [ "obj-93", 1 ],
					"disabled" : 0,
					"hidden" : 0,
					"source" : [ "obj-91", 0 ]
				}

			}
, 			{
				"patchline" : 				{
					"destination" : [ "obj-99", 1 ],
					"disabled" : 0,
					"hidden" : 0,
					"source" : [ "obj-95", 0 ]
				}

			}
 ],
		"parameters" : 		{
			"obj-94::obj-161" : [ "multislider[18]", "multislider[1]", 0 ],
			"obj-7::obj-102::obj-24::obj-70" : [ "PitchMap[1]", "PitchMap", 1 ],
			"obj-7::obj-67" : [ "AmpDecay[2]", "D", 0 ],
			"obj-7::obj-121" : [ "multislider[1]", "multislider[1]", 0 ],
			"obj-7::obj-46" : [ "multislider", "multislider", 0 ],
			"obj-7::obj-148" : [ "decay[2]", "decay", 0 ],
			"obj-7::obj-42" : [ "live.dial[10]", "Rotate", 0 ],
			"obj-7::obj-16" : [ "Dry/Wet[1]", "Dry/Wet", 0 ],
			"obj-7::obj-152" : [ "multislider[2]", "multislider[1]", 0 ],
			"obj-7::obj-116" : [ "decay[3]", "decay", 0 ]
		}
,
		"dependency_cache" : [ 			{
				"name" : "klo.dawn.clock.maxpat",
				"bootpath" : "~/Google.Drive/KLO/Max-Patches/abstractions",
				"type" : "JSON",
				"implicit" : 1
			}
, 			{
				"name" : "dawn.createSends.js",
				"bootpath" : "~/Google.Drive/KLO/Max-Patches/abstractions/aw.dawn/dawn_create_sends_javascript/code",
				"type" : "TEXT",
				"implicit" : 1
			}
, 			{
				"name" : "klo.quant.send.maxpat",
				"bootpath" : "~/Google.Drive/KLO/Max-Patches/abstractions/Quantizer",
				"type" : "JSON",
				"implicit" : 1
			}
, 			{
				"name" : "klosc.padstate.maxpat",
				"bootpath" : "~/Google.Drive/KLO/Max-Patches/abstractions",
				"type" : "JSON",
				"implicit" : 1
			}
, 			{
				"name" : "aw.padstate.maxpat",
				"bootpath" : "~/Google.Drive/KLO/Max-Patches/abstractions",
				"type" : "JSON",
				"implicit" : 1
			}
, 			{
				"name" : "aw.zl.sub.maxpat",
				"bootpath" : "~/Google.Drive/KLO/Max-Patches/abstractions",
				"type" : "JSON",
				"implicit" : 1
			}
, 			{
				"name" : "aw.list.repgen.maxpat",
				"bootpath" : "~/Google.Drive/KLO/Max-Patches/abstractions",
				"type" : "JSON",
				"implicit" : 1
			}
, 			{
				"name" : "aw.bjork.maxpat",
				"bootpath" : "~/Google.Drive/KLO/Max-Patches/abstractions",
				"type" : "JSON",
				"implicit" : 1
			}
, 			{
				"name" : "klo.dawn.client.maxpat",
				"bootpath" : "~/Google.Drive/KLO/Max-Patches/abstractions",
				"type" : "JSON",
				"implicit" : 1
			}
, 			{
				"name" : "klosc.maxpat",
				"bootpath" : "~/Google.Drive/KLO/Max-Patches/abstractions",
				"type" : "JSON",
				"implicit" : 1
			}
, 			{
				"name" : "klo.quant.simple.maxpat",
				"bootpath" : "~/Google.Drive/KLO/Max-Patches/abstractions",
				"type" : "JSON",
				"implicit" : 1
			}
, 			{
				"name" : "lm.hplpstereo.maxpat",
				"bootpath" : "~/Google.Drive/KLO/Max-Patches/abstractions",
				"type" : "JSON",
				"implicit" : 1
			}
, 			{
				"name" : "pan2.maxpat",
				"bootpath" : "~/Google.Drive/KLO/Max-Patches/abstractions/Music_SDP Beta 1.0.3/System_Files/Important_Files/Effects/Includes",
				"type" : "JSON",
				"implicit" : 1
			}
, 			{
				"name" : "thru.maxpat",
				"bootpath" : "C74:/patchers/m4l/Pluggo for Live resources/patches",
				"type" : "JSON",
				"implicit" : 1
			}
, 			{
				"name" : "OSC-route.mxo",
				"type" : "iLaX"
			}
 ],
		"autosave" : 0
	}

}
